<?xml version="1.0" encoding="utf-8"?>
<!-- Generator: Adobe Illustrator 22.0.1, SVG Export Plug-In . SVG Version: 6.00 Build 0)  -->
<svg version="1.1" id="Layer_1" xmlns="http://www.w3.org/2000/svg" xmlns:xlink="http://www.w3.org/1999/xlink" x="0px" y="0px"
	 viewBox="0 0 252 144" style="enable-background:new 0 0 252 144;" xml:space="preserve">
<style type="text/css">
	.st0{fill:#5EA7DC;}
	.st1{opacity:0.35;fill:#010101;}
	.st2{font-family:'ArialMT';}
	.st3{font-size:207.343px;}
	.st4{fill:none;}
	.st5{opacity:0.44;fill:#040202;}
	.st6{fill:#FDFEFF;}
	.st7{fill:#010101;}
</style>
<rect class="st0" width="252" height="144"/>
<g>
	<g>
		<text transform="matrix(-0.8694 3.095207e-03 3.670000e-03 1 253.6109 145.9311)" class="st1 st2 st3">&lt;</text>
		<text transform="matrix(0.8694 3.095207e-03 -3.670000e-03 1 -1.6109 145.9312)" class="st1 st2 st3">&lt;</text>
		<polygon class="st4" points="155.9,31.2 155.4,32.1 149.2,29.1 149.8,28.2 		"/>
	</g>
	<g>
		<path class="st5" d="M148.9,18.3c-18.3,28.8-36.5,57.5-54.8,86.3c-3,4.8-6.1,9.6-9.1,14.4c5.9,2.9,11.8,5.9,17.7,8.8l63.9-100.6
			L148.9,18.3z M105.2,120.1l-4.1-2l-0.3,0.5l4.1,2l-0.8,1.3l-10.2-5l0.7-1.1l0,0l0.6-0.9l0,0l0.7-1.1l10.2,5L105.2,120.1z
			 M108.6,114.7l-4.1-2l-0.3,0.5l4.1,2l-0.8,1.3l-4.1-2l-0.3,0.5l4.1,2l-0.8,1.3l-10.2-5l0.7-1.1l0,0l0.6-0.9l0,0l0.6-0.9l0,0
			l0.6-0.9l0,0l0.7-1.1l10.2,5L108.6,114.7z M113.1,107.5l-4.1-2l-0.3,0.5l4.1,2l-0.8,1.3l-4.1-2l-0.3,0.5l4.1,2l-0.8,1.3l-4.1-2
			l-0.3,0.5l4.1,2l-0.8,1.3l-10.2-5l0.7-1l0,0l0.6-0.9l0,0l0.5-0.9l0,0l0.6-0.9l0,0l0.6-0.9l0,0l0.6-0.9l0,0l0.7-1.1l10.2,5
			L113.1,107.5z M116.4,102.2l-4.1-2l-0.3,0.4l4.1,2l-0.8,1.3l-4.1-2l-0.3,0.5l4.1,2l-0.8,1.3l-10.2-5l0.7-1.1l0,0l0.6-0.9l0,0
			l0.6-0.9l0,0l0.6-0.9l0,0l0.6-0.9l10.2,5L116.4,102.2z M120.7,95.4l-4.1-2l-0.3,0.4l4.1,2l-0.8,1.3l-4.1-2l-0.3,0.4l4.1,2
			l-0.8,1.3l-4.1-2l-0.3,0.4l4.1,2l-0.8,1.3l-10.2-5l0.7-1l0,0l0.6-0.9l0,0l0.5-0.8l0,0l0.6-0.9l0,0l0.5-0.8l0,0l0.6-0.9l0,0l0.6-1
			l10.2,5L120.7,95.4z M123.8,90.4l-4.1-2l-0.3,0.4l4.1,2l-0.8,1.3l-4.1-2l-0.3,0.4l4.1,2l-0.8,1.3l-10.2-5l0.6-1l0,0l0.6-0.9l0,0
			l0.5-0.8l0,0l0.6-0.9l0,0l0.6-1l10.2,5L123.8,90.4z M128.1,83.7l-4.1-2l-0.3,0.4l4.1,2l-0.8,1.3l-4.1-2l-0.2,0.4l4.1,2l-0.8,1.3
			l-4.1-2l-0.3,0.4l4.1,2l-0.8,1.3l-10.2-5l0.6-1l0,0l0.6-0.9l0,0l0.5-0.7l0,0l0.6-0.9l0,0l0.5-0.8l-0.1,0l0.6-0.9l0.1,0l0.7-1.1
			l10.2,5L128.1,83.7z M131.5,78.4l-4.1-2l-0.3,0.4l4.1,2l-0.8,1.3l-4.1-2l-0.3,0.5l4.1,2l-0.8,1.3l-10.2-5l0.7-1l0,0l0.6-0.9l0,0
			l0.5-0.9l0,0l0.6-0.9l0,0l0.6-1l10.2,5L131.5,78.4z M136,71.4l-4.1-2l-0.3,0.4l4.1,2l-0.8,1.3l-4.2-2.1l-0.3,0.5l4.2,2.1l-0.8,1.3
			l-4.1-2l-0.3,0.5l4.1,2l-0.8,1.3l-10.2-5l0.7-1.1l0,0l0.6-0.9l0,0l0.5-0.8l-0.1-0.1l0.6-0.9l0.2,0.1l0.5-0.9l-0.1,0l0.6-0.9l0.1,0
			l0.6-1l10.2,5L136,71.4z M139.4,66.1l-4.2-2.1l-0.3,0.5l4.1,2l-0.8,1.3l-4.1-2l-0.3,0.5l4.1,2l-0.8,1.3l-10.2-5l0.6-1l-0.1,0
			l0.6-0.9l0.1,0l0.6-0.9l-0.1,0l0.6-0.9l0.2,0.1l0.6-1l10.2,5L139.4,66.1z M143.8,59l-4.1-2l-0.3,0.5l4.2,2.1l-0.8,1.3l-4.2-2.1
			l-0.3,0.5l4.2,2.1l-0.8,1.3l-4.2-2.1l-0.3,0.5l4.2,2.1l-0.8,1.3l-10.2-5l0.7-1.1l-0.1-0.1l0.6-0.9l0.2,0.1l0.6-0.9l-0.2-0.1
			l0.6-0.9l0.2,0.1l0.5-0.9l-0.1-0.1l0.6-0.9l0,0l0.6-1l10.2,5L143.8,59z M147.3,53.6l-4.2-2.1l-0.3,0.6l4.2,2.1l-0.8,1.3l-4.1-2
			l-0.3,0.4l4.1,2l-0.8,1.3l-10.2-5l0.7-1l0,0l0.6-0.9l0.1,0l0.6-0.9l-0.1-0.1l0.6-0.9l0.1,0.1l0.7-1.1l10.2,5L147.3,53.6z
			 M151.7,46.4l-4.1-2l-0.3,0.5l4.1,2l-0.8,1.3l-4.2-2.1l-0.2,0.4l4.1,2l-0.8,1.3l-4.1-2l-0.3,0.5l4.1,2l-0.8,1.3l-10.2-5l0.7-1.1
			l0,0l0.6-0.9l0,0l0.6-0.9l0,0l0.6-0.9l0.1,0.1l0.5-0.7l-0.1,0l0.6-0.9l0,0l0.7-1.1l10.2,5L151.7,46.4z M155,41.1l-4.1-2l-0.3,0.5
			l4.1,2l-0.8,1.3l-4.1-2l-0.3,0.5l4.1,2l-0.8,1.3l-10.2-5l0.6-1l0,0l0.6-0.9l0,0l0.6-0.9l-0.1,0l0.6-0.9l0.1,0l0.7-1.1l10.2,5
			L155,41.1z M159.4,34.3l-4.1-2l-0.3,0.4l4.2,2.1l-0.8,1.3l-4.2-2.1l-0.2,0.4l4.2,2.1l-0.8,1.3l-4.2-2.1l-0.3,0.5l4.2,2.1l-0.8,1.3
			l-10.2-5l0.7-1.1l-0.2-0.1l0.6-0.9l0.2,0.1l0.5-0.8l-0.2-0.1l0.6-0.9l0.2,0.1l0.5-0.8l-0.1-0.1l0.6-0.9l0.1,0l0.6-1l10.2,5
			L159.4,34.3z M150.4,27.6l0.8-1.3l10.2,5.1l-0.8,1.3L150.4,27.6z"/>
		<polygon class="st6" points="96.8,112.2 96.2,113.3 106.3,118.3 107.1,117 103.1,115 102.9,115.2 		"/>
		<polygon class="st6" points="98,110.4 97.4,111.3 103.5,114.3 103.4,114.5 107.5,116.5 108.3,115.2 104.2,113.2 104.1,113.4 		"/>
		<polygon class="st6" points="94.6,115.8 93.9,116.9 104.1,121.9 104.9,120.6 100.8,118.6 100.7,118.8 		"/>
		<polygon class="st6" points="95.2,114.8 101.3,117.9 101.2,118.1 105.2,120.1 106,118.8 95.9,113.8 		"/>
		<polygon class="st6" points="101.3,105 100.8,105.9 106.9,108.9 106.8,109.1 110.8,111.1 111.6,109.8 107.6,107.8 107.4,108.1 		
			"/>
		<polygon class="st6" points="102.5,103.2 101.9,104.1 108,107.1 107.9,107.3 112,109.3 112.8,108 108.7,106 108.6,106.3 		"/>
		<polygon class="st6" points="98.5,109.5 104.7,112.5 104.5,112.7 108.6,114.7 109.4,113.4 99.2,108.4 		"/>
		<polygon class="st6" points="100.2,106.8 99.6,107.9 109.7,112.9 110.5,111.6 106.5,109.6 106.3,109.8 		"/>
		<polygon class="st6" points="105.9,97.7 105.3,98.7 111.4,101.7 111.2,101.9 115.3,103.9 116.1,102.6 112.1,100.6 112,100.8 		"/>
		<polygon class="st6" points="106.5,96.8 112.6,99.8 112.4,100.2 116.4,102.2 117.2,100.9 107,95.9 		"/>
		<polygon class="st6" points="103,102.3 109.1,105.3 109,105.5 113.1,107.5 113.9,106.2 103.7,101.2 		"/>
		<polygon class="st6" points="104.8,99.6 104.1,100.7 114.2,105.7 115,104.4 110.9,102.4 110.8,102.6 		"/>
		<polygon class="st6" points="110.1,91.1 109.6,91.8 115.7,94.8 115.5,95.1 119.6,97.1 120.4,95.8 116.4,93.8 116.2,94.1 		"/>
		<polygon class="st6" points="110.7,90.2 116.8,93.2 116.6,93.4 120.7,95.4 121.5,94.1 111.3,89.1 		"/>
		<polygon class="st6" points="108,94.4 107.3,95.5 117.5,100.5 118.3,99.2 114.2,97.2 114.1,97.5 		"/>
		<polygon class="st6" points="109,92.7 108.5,93.5 114.7,96.5 114.5,96.8 118.5,98.8 119.4,97.5 115.3,95.5 115.1,95.7 		"/>
		<polygon class="st6" points="113.8,85.1 119.9,88.1 119.8,88.4 123.8,90.4 124.6,89.1 114.5,84.1 		"/>
		<polygon class="st6" points="115.3,82.7 114.7,83.7 124.9,88.7 125.7,87.4 121.6,85.4 121.5,85.7 		"/>
		<polygon class="st6" points="112.2,87.7 111.6,88.8 121.8,93.8 122.6,92.5 118.5,90.5 118.3,90.7 		"/>
		<polygon class="st6" points="113.2,86 112.8,86.8 118.9,89.8 118.7,90.1 122.8,92.1 123.6,90.8 119.5,88.8 119.3,89.1 		"/>
		<polygon class="st6" points="118.1,78.4 124.1,81.4 124,81.6 128.1,83.7 128.9,82.4 118.7,77.4 		"/>
		<polygon class="st6" points="119.8,75.9 119.1,76.9 129.3,81.9 130.1,80.6 126.1,78.6 125.9,78.9 		"/>
		<polygon class="st6" points="116.4,81 116,81.8 122,84.8 121.9,85 126,87.1 126.8,85.8 122.7,83.7 122.5,84 		"/>
		<polygon class="st6" points="117.5,79.3 117,80.1 123.1,83.1 122.9,83.4 127,85.4 127.8,84.1 123.7,82.1 123.5,82.3 		"/>
		<polygon class="st6" points="123.1,70.5 122.5,71.6 132.6,76.6 133.4,75.4 129.4,73.4 129.3,73.5 		"/>
		<polygon class="st6" points="124.3,68.7 123.7,69.6 129.8,72.6 129.7,72.8 133.8,74.8 134.6,73.6 130.4,71.5 130.3,71.7 		"/>
		<polygon class="st6" points="120.9,74.1 120.4,74.9 126.5,78 126.4,78.1 130.4,80.2 131.2,78.9 127.2,76.9 127,77.1 		"/>
		<polygon class="st6" points="121.5,73.1 127.6,76.2 127.4,76.4 131.5,78.4 132.3,77.2 122.1,72.1 		"/>
		<polygon class="st6" points="127.6,63.6 127,64.6 137.1,69.6 137.9,68.3 133.8,66.3 133.6,66.5 		"/>
		<polygon class="st6" points="128.7,61.8 128.2,62.7 134.2,65.6 134.1,65.8 138.2,67.9 139,66.6 134.9,64.5 134.8,64.7 		"/>
		<polygon class="st6" points="125.5,67 124.9,67.9 130.9,70.8 130.7,71 134.9,73.1 135.7,71.8 131.6,69.8 131.5,70 		"/>
		<polygon class="st6" points="126,66.1 132.1,69.1 131.9,69.4 136,71.4 136.8,70.1 126.6,65.1 		"/>
		<polygon class="st6" points="131,58.3 130.3,59.3 140.5,64.4 141.3,63.1 137.1,61 137,61.2 		"/>
		<polygon class="st6" points="132.2,56.5 131.6,57.4 137.5,60.3 137.4,60.6 141.6,62.6 142.4,61.4 138.2,59.3 138.1,59.4 		"/>
		<polygon class="st6" points="129.4,60.9 135.3,63.8 135.2,64.1 139.4,66.1 140.2,64.9 130,59.8 		"/>
		<polygon class="st6" points="135.5,51.1 134.8,52.1 145,57.2 145.8,55.9 141.7,53.9 141.6,54.1 		"/>
		<polygon class="st6" points="136.6,49.3 136.1,50.2 142.1,53.2 142,53.4 146.1,55.5 146.9,54.2 142.7,52.1 142.6,52.3 		"/>
		<polygon class="st6" points="133.3,54.7 132.7,55.5 138.7,58.5 138.5,58.8 142.7,60.8 143.5,59.6 139.4,57.5 139.3,57.6 		"/>
		<polygon class="st6" points="133.8,53.7 139.8,56.7 139.7,57 143.8,59 144.6,57.7 134.4,52.7 		"/>
		<polygon class="st6" points="140,43.8 139.4,44.7 145.5,47.7 145.4,47.9 149.5,49.9 150.3,48.6 146.2,46.6 146.1,46.8 		"/>
		<polygon class="st6" points="141.2,42.2 140.7,42.9 146.7,45.9 146.5,46.2 150.6,48.3 151.4,47 147.3,44.9 147.2,45.1 		"/>
		<polygon class="st6" points="137.2,48.4 143.2,51.4 143.1,51.6 147.3,53.6 148.1,52.4 137.9,47.3 		"/>
		<polygon class="st6" points="138.9,45.6 138.2,46.7 148.4,51.7 149.2,50.4 145.1,48.4 145,48.6 		"/>
		<polygon class="st6" points="144.4,36.7 143.8,37.7 149.9,40.7 149.8,40.8 153.9,42.9 154.7,41.6 150.6,39.5 150.4,39.7 		"/>
		<polygon class="st6" points="145,35.8 151,38.8 150.9,39 155,41.1 155.8,39.8 145.7,34.8 		"/>
		<polygon class="st6" points="141.7,41.2 147.8,44.2 147.6,44.4 151.7,46.4 152.5,45.2 142.4,40.1 		"/>
		<polygon class="st6" points="143.3,38.6 142.6,39.6 152.8,44.6 153.6,43.4 149.5,41.3 149.3,41.6 		"/>
		<polygon class="st6" points="146.7,33.3 146.1,34.3 156.2,39.4 157,38.1 152.8,36 152.7,36.2 		"/>
		<polygon class="st6" points="149.4,28.9 155.5,31.9 155.3,32.2 159.4,34.3 160.2,33 150,28 		"/>
		<polygon class="st6" points="151.2,26.3 150.4,27.6 160.5,32.7 161.3,31.4 		"/>
		<polygon class="st6" points="147.8,31.6 147.3,32.4 153.3,35.3 153.1,35.5 157.4,37.6 158.2,36.3 153.9,34.2 153.7,34.6 		"/>
		<polygon class="st6" points="148.9,29.9 148.4,30.7 154.3,33.6 154.2,33.9 158.4,36 159.2,34.7 155,32.6 154.9,32.8 		"/>
		<polygon class="st7" points="95.2,114.8 95.2,114.8 94.6,115.8 94.6,115.8 100.7,118.8 100.8,118.6 101.2,118.1 101.3,117.9 		"/>
		<polygon class="st7" points="97.4,111.3 97.4,111.3 96.8,112.2 96.8,112.2 102.9,115.2 103.1,115 103.4,114.5 103.5,114.3 		"/>
		<polygon class="st7" points="98.5,109.5 98.5,109.5 98,110.4 98,110.4 104.1,113.4 104.2,113.2 104.5,112.7 104.7,112.5 		"/>
		<polygon class="st7" points="101.9,104.1 101.9,104.1 101.3,105 101.3,105 107.4,108.1 107.6,107.8 107.9,107.3 108,107.1 		"/>
		<polygon class="st7" points="103,102.3 103,102.3 102.5,103.2 102.5,103.2 108.6,106.3 108.7,106 109,105.5 109.1,105.3 		"/>
		<polygon class="st7" points="105.3,98.7 105.3,98.6 104.7,99.5 104.8,99.6 110.8,102.6 110.9,102.4 111.2,101.9 111.4,101.7 		"/>
		<polygon class="st7" points="106.5,96.8 106.5,96.8 105.9,97.7 105.9,97.7 112,100.8 112.1,100.6 112.4,100.2 112.6,99.8 		"/>
		<polygon class="st7" points="108.5,93.5 108.5,93.5 108,94.4 108,94.4 114.1,97.5 114.2,97.2 114.5,96.8 114.7,96.5 		"/>
		<polygon class="st7" points="109.6,91.8 109.6,91.8 109,92.7 109,92.7 115.1,95.7 115.3,95.5 115.5,95.1 115.7,94.8 		"/>
		<polygon class="st7" points="110.7,90.2 110.7,90.2 110.1,91.1 110.1,91.1 116.2,94.1 116.4,93.8 116.6,93.4 116.8,93.2 		"/>
		<polygon class="st7" points="112.8,86.8 112.8,86.8 112.2,87.7 112.2,87.7 118.3,90.7 118.5,90.5 118.7,90.1 118.9,89.8 		"/>
		<polygon class="st7" points="113.8,85.1 113.8,85.1 113.2,86 113.2,86 119.3,89.1 119.5,88.8 119.8,88.4 119.9,88.1 		"/>
		<polygon class="st7" points="116,81.8 115.9,81.7 115.3,82.7 115.3,82.7 121.5,85.7 121.6,85.4 121.9,85 122,84.8 		"/>
		<polygon class="st7" points="117,80.1 117,80.1 116.4,81 116.4,81 122.5,84 122.7,83.7 122.9,83.4 123.1,83.1 		"/>
		<polygon class="st7" points="118.1,78.4 118,78.4 117.4,79.3 117.5,79.3 123.5,82.3 123.7,82.1 124,81.6 124.1,81.4 		"/>
		<polygon class="st7" points="120.4,74.9 120.4,74.9 119.8,75.9 119.8,75.9 125.9,78.9 126.1,78.6 126.4,78.1 126.5,78 		"/>
		<polygon class="st7" points="121.5,73.1 121.5,73.1 120.9,74.1 120.9,74.1 127,77.1 127.2,76.9 127.4,76.4 127.6,76.2 		"/>
		<polygon class="st7" points="123.7,69.6 123.7,69.6 123.1,70.5 123.1,70.5 129.3,73.5 129.4,73.4 129.7,72.8 129.8,72.6 		"/>
		<polygon class="st7" points="126,66.1 126,66.1 125.4,67 125.5,67 131.5,70 131.6,69.8 131.9,69.4 132.1,69.1 		"/>
		<polygon class="st7" points="124.9,67.9 124.7,67.8 124.2,68.7 124.3,68.7 130.3,71.7 130.4,71.5 130.7,71 130.9,70.8 		"/>
		<polygon class="st7" points="128.2,62.7 128.1,62.6 127.5,63.5 127.6,63.6 133.6,66.5 133.8,66.3 134.1,65.8 134.2,65.6 		"/>
		<polygon class="st7" points="129.4,60.9 129.2,60.8 128.6,61.7 128.7,61.8 134.8,64.7 134.9,64.5 135.2,64.1 135.3,63.8 		"/>
		<polygon class="st7" points="131.6,57.4 131.4,57.3 130.8,58.2 131,58.3 137,61.2 137.1,61 137.4,60.6 137.5,60.3 		"/>
		<polygon class="st7" points="132.7,55.5 132.6,55.5 132,56.4 132.2,56.5 138.1,59.4 138.2,59.3 138.5,58.8 138.7,58.5 		"/>
		<polygon class="st7" points="133.8,53.7 133.7,53.7 133.1,54.6 133.3,54.7 139.3,57.6 139.4,57.5 139.7,57 139.8,56.7 		"/>
		<polygon class="st7" points="137.2,48.4 137.1,48.3 136.5,49.3 136.6,49.3 142.6,52.3 142.7,52.1 143.1,51.6 143.2,51.4 		"/>
		<polygon class="st7" points="139.4,44.7 139.4,44.7 138.9,45.6 138.9,45.6 145,48.6 145.1,48.4 145.4,47.9 145.5,47.7 		"/>
		<polygon class="st7" points="140.7,42.9 140.6,42.8 140,43.7 140,43.8 146.1,46.8 146.2,46.6 146.5,46.2 146.7,45.9 		"/>
		<polygon class="st7" points="141.7,41.2 141.7,41.2 141.1,42.1 141.2,42.2 147.2,45.1 147.3,44.9 147.6,44.4 147.8,44.2 		"/>
		<polygon class="st7" points="147.3,32.4 147.2,32.3 146.6,33.2 146.7,33.3 152.7,36.2 152.8,36 153.1,35.5 153.3,35.3 		"/>
		<polygon class="st7" points="145,35.8 144.9,35.8 144.3,36.7 144.4,36.7 150.4,39.7 150.6,39.5 150.9,39 151,38.8 		"/>
		<polygon class="st7" points="148.4,30.7 148.2,30.6 147.6,31.5 147.8,31.6 153.7,34.6 153.9,34.2 154.2,33.9 154.3,33.6 		"/>
		<polygon class="st7" points="149.4,28.9 149.3,28.9 148.8,29.8 148.9,29.9 154.9,32.8 155,32.6 155.3,32.2 155.5,31.9 		"/>
		<polygon class="st7" points="143.8,37.7 143.8,37.7 143.2,38.6 143.3,38.6 149.3,41.6 149.5,41.3 149.8,40.8 149.9,40.7 		"/>
		<polygon class="st7" points="136.1,50.2 136,50.2 135.4,51.1 135.5,51.1 141.6,54.1 141.7,53.9 142,53.4 142.1,53.2 		"/>
		<polygon class="st7" points="100.8,105.9 100.8,105.9 100.2,106.8 100.2,106.8 106.3,109.8 106.5,109.6 106.8,109.1 106.9,108.9 
					"/>
	</g>
</g>
</svg>
